<svg width="32" height="32" viewBox="0 0 32 32" fill="none" xmlns="http://www.w3.org/2000/svg">
  <!-- Brain/Chip outline -->
  <path d="M8 10C8 6.68629 10.6863 4 14 4H18C21.3137 4 24 6.68629 24 10V12C26.2091 12 28 13.7909 28 16C28 18.2091 26.2091 20 24 20V22C24 25.3137 21.3137 28 18 28H14C10.6863 28 8 25.3137 8 22V20C5.79086 20 4 18.2091 4 16C4 13.7909 5.79086 12 8 12V10Z" fill="#3B82F6" stroke="#1E40AF" stroke-width="1"/>
  
  <!-- Circuit patterns -->
  <line x1="10" y1="12" x2="14" y2="12" stroke="#E5E7EB" stroke-width="1"/>
  <line x1="18" y1="12" x2="22" y2="12" stroke="#E5E7EB" stroke-width="1"/>
  <line x1="10" y1="16" x2="22" y2="16" stroke="#E5E7EB" stroke-width="1"/>
  <line x1="10" y1="20" x2="14" y2="20" stroke="#E5E7EB" stroke-width="1"/>
  <line x1="18" y1="20" x2="22" y2="20" stroke="#E5E7EB" stroke-width="1"/>
  
  <!-- Connection nodes -->
  <circle cx="12" cy="12" r="1" fill="#E5E7EB"/>
  <circle cx="20" cy="12" r="1" fill="#E5E7EB"/>
  <circle cx="16" cy="16" r="1.5" fill="#F59E0B"/>
  <circle cx="12" cy="20" r="1" fill="#E5E7EB"/>
  <circle cx="20" cy="20" r="1" fill="#E5E7EB"/>
  
  <!-- Central processing indicator -->
  <rect x="14" y="14" width="4" height="4" rx="1" fill="#10B981" stroke="#059669" stroke-width="0.5"/>
</svg>